<?xml version="1.0" standalone="no"?><!DOCTYPE svg PUBLIC "-//W3C//DTD SVG 1.1//EN" "http://www.w3.org/Graphics/SVG/1.1/DTD/svg11.dtd"><svg t="1612353018674" class="icon" viewBox="0 0 1024 1024" version="1.1" xmlns="http://www.w3.org/2000/svg" p-id="4144" xmlns:xlink="http://www.w3.org/1999/xlink" width="200" height="200"><defs><style type="text/css"></style></defs><path d="M512 170.666667a42.666667 42.666667 0 0 1 30.165333 12.501333l170.666667 170.666667a42.666667 42.666667 0 0 1-60.330667 60.330666L512 273.664 371.498667 414.165333a42.666667 42.666667 0 0 1-60.330667-60.330666l170.666667-170.666667A42.666667 42.666667 0 0 1 512 170.666667zM311.168 609.834667a42.666667 42.666667 0 0 1 60.330667 0L512 750.336l140.501333-140.501333a42.666667 42.666667 0 0 1 60.330667 60.330666l-170.666667 170.666667a42.666667 42.666667 0 0 1-60.330666 0l-170.666667-170.666667a42.666667 42.666667 0 0 1 0-60.330666z" fill="#0D0D0D" p-id="4145"></path></svg>